<svg xmlns="http://www.w3.org/2000/svg" xmlns:xlink="http://www.w3.org/1999/xlink" xmlns:lucid="lucid" width="1188" height="1178"><g transform="translate(-379 -179)" lucid:page-tab-id="0_0"><path d="M0 0h2000v1500H0z" fill="#fff"/><path d="M600 186a6 6 0 0 1 6-6h348a6 6 0 0 1 6 6v148a6 6 0 0 1-6 6H606a6 6 0 0 1-6-6z" stroke="#000" stroke-width="2" fill="#6db1ff"/><use xlink:href="#a" transform="matrix(1,0,0,1,605,185) translate(63.623046875 90.3125)"/><path d="M380 386a6 6 0 0 1 6-6h348a6 6 0 0 1 6 6v148a6 6 0 0 1-6 6H386a6 6 0 0 1-6-6z" stroke="#000" stroke-width="2" fill="#cfe4ff"/><use xlink:href="#b" transform="matrix(1,0,0,1,385,385) translate(107.333984375 90.3125)"/><path d="M840 386a6 6 0 0 1 6-6h348a6 6 0 0 1 6 6v148a6 6 0 0 1-6 6H846a6 6 0 0 1-6-6z" stroke="#000" stroke-width="2" fill="#cfe4ff"/><use xlink:href="#c" transform="matrix(1,0,0,1,845,385) translate(131.748046875 90.3125)"/><path d="M480 706a6 6 0 0 1 6-6h268a6 6 0 0 1 6 6v88a6 6 0 0 1-6 6H486a6 6 0 0 1-6-6z" stroke="#000" stroke-width="2" fill="#fff"/><use xlink:href="#d" transform="matrix(1,0,0,1,485,705) translate(21.502821180555543 54.61805555555556)"/><path d="M480 586a6 6 0 0 1 6-6h268a6 6 0 0 1 6 6v88a6 6 0 0 1-6 6H486a6 6 0 0 1-6-6z" stroke="#000" stroke-width="2" fill="#fff"/><use xlink:href="#e" transform="matrix(1,0,0,1,485,585) translate(60.479058159722214 54.61805555555556)"/><path d="M480 826a6 6 0 0 1 6-6h268a6 6 0 0 1 6 6v88a6 6 0 0 1-6 6H486a6 6 0 0 1-6-6z" stroke="#000" stroke-width="2" fill="#fff"/><use xlink:href="#f" transform="matrix(1,0,0,1,485,825) translate(56.89832899305556 54.61805555555556)"/><path d="M946 580a6 6 0 0 1 6-6h348a6 6 0 0 1 6 6v148a6 6 0 0 1-6 6H952a6 6 0 0 1-6-6z" stroke="#000" stroke-width="2" fill="#edf5ff"/><use xlink:href="#g" transform="matrix(1,0,0,1,951.0000025862141,579) translate(82.548828125 90.3125)"/><path d="M946 940a6 6 0 0 1 6-6h348a6 6 0 0 1 6 6v148a6 6 0 0 1-6 6H952a6 6 0 0 1-6-6z" stroke="#000" stroke-width="2" fill="#edf5ff"/><use xlink:href="#h" transform="matrix(1,0,0,1,951.0000025862141,939) translate(110.576171875 90.3125)"/><path d="M430 541.5V744a6 6 0 0 0 6 6h42.5" stroke="#3a414a" fill="none"/><path d="M430.48 541.5h-.96v-.5h.96zM479 750.48h-.5v-.96h.5z" stroke="#3a414a" stroke-width=".05" fill="#3a414a"/><path d="M430 541.5V624a6 6 0 0 0 6 6h42.5" stroke="#3a414a" fill="none"/><path d="M430.48 541.5h-.96v-.5h.96zM479 630.48h-.5v-.96h.5z" stroke="#3a414a" stroke-width=".05" fill="#3a414a"/><path d="M430 541.5V864a6 6 0 0 0 6 6h42.5" stroke="#3a414a" fill="none"/><path d="M430.48 541.5h-.96v-.5h.96zM479 870.48h-.5v-.96h.5z" stroke="#3a414a" stroke-width=".05" fill="#3a414a"/><path d="M780 341.5V354a6 6 0 0 1-6 6H566a6 6 0 0 0-6 6v12.5" stroke="#3a414a" fill="none"/><path d="M780.48 341.5h-.96v-.5h.96zM560.48 379h-.96v-.5h.96z" stroke="#3a414a" stroke-width=".05" fill="#3a414a"/><path d="M780 341.5V354a6 6 0 0 0 6 6h228a6 6 0 0 1 6 6v12.5" stroke="#3a414a" fill="none"/><path d="M780.48 341.5h-.96v-.5h.96zM1020.48 379h-.96v-.5h.96z" stroke="#3a414a" stroke-width=".05" fill="#3a414a"/><path d="M887 541.5V648a6 6 0 0 0 6 6h51.5" stroke="#3a414a" fill="none"/><path d="M887.48 541.5h-.96v-.5h.96zM945 654.48h-.5v-.96h.5z" stroke="#3a414a" stroke-width=".05" fill="#3a414a"/><path d="M944.5 1014H893a6 6 0 0 1-6-6V541.5" stroke="#3a414a" fill="none"/><path d="M945 1014.48h-.5v-.96h.5zM887.48 541.5h-.96v-.5h.96z" stroke="#3a414a" stroke-width=".05" fill="#3a414a"/><path d="M1346 598.4a6 6 0 0 1 6-6h186a6 6 0 0 1 6 6v114.36c-33.07-20.1-53.66-20.1-66.13-20.1-19.8 0-46.14 20.1-65.94 20.1-12.27 0-33.06 0-65.93-20.1z" stroke="#000" stroke-width="2" fill="#fff"/><path d="M1357 609.03a6 6 0 0 1 6-6h186a6 6 0 0 1 6 6v114.35c-33.07-20.1-53.66-20.1-66.13-20.1-19.8 0-46.14 20.1-65.94 20.1-12.27 0-33.06 0-65.93-20.1z" stroke="#000" stroke-width="2" fill="#fff"/><path d="M1368 619.65a6 6 0 0 1 6-6h186a6 6 0 0 1 6 6V734c-33.07-20.1-53.66-20.1-66.13-20.1-19.8 0-46.14 20.1-65.94 20.1-12.27 0-33.06 0-65.93-20.1z" stroke="#000" stroke-width="2" fill="#fff"/><use xlink:href="#i" transform="matrix(1,0,0,1,1373.0000025862141,618.6484375) translate(47.64040798611111 37.450954861111114)"/><use xlink:href="#j" transform="matrix(1,0,0,1,1373.0000025862141,618.6484375) translate(5.257595486111114 69.71657986111111)"/><use xlink:href="#k" transform="matrix(1,0,0,1,1373.0000025862141,618.6484375) translate(110.3357204861111 69.71657986111111)"/><path d="M1307.5 654h37" stroke="#3a414a" fill="none"/><path d="M1307.5 654.48h-.5v-.96h.5zM1345 654.48h-.5v-.96h.5z" stroke="#3a414a" stroke-width=".05" fill="#3a414a"/><path d="M1026 1157a6 6 0 0 1 6-6h288a6 6 0 0 1 6 6v28a6 6 0 0 1-6 6h-288a6 6 0 0 1-6-6z" fill="none"/><use xlink:href="#l" transform="matrix(1,0,0,1,1026.0000025862141,1151) translate(0 28.08376736111111)"/><use xlink:href="#m" transform="matrix(1,0,0,1,1026.0000025862141,1151) translate(12.5 28.08376736111111)"/><path d="M946 760a6 6 0 0 1 6-6h348a6 6 0 0 1 6 6v148a6 6 0 0 1-6 6H952a6 6 0 0 1-6-6z" stroke="#000" stroke-width="2" fill="#edf5ff"/><use xlink:href="#h" transform="matrix(1,0,0,1,951.0000025862141,759) translate(110.576171875 90.3125)"/><path d="M887 541.5V828a6 6 0 0 0 6 6h51.5" stroke="#3a414a" fill="none"/><path d="M887.48 541.5h-.96v-.5h.96zM945 834.48h-.5v-.96h.5z" stroke="#3a414a" stroke-width=".05" fill="#3a414a"/><path d="M1346 784.64a6 6 0 0 1 6-6h186a6 6 0 0 1 6 6V889.8c-33.07-18.55-53.66-18.55-66.13-18.55-19.8 0-46.14 18.56-65.94 18.56-12.27 0-33.06 0-65.93-18.55z" stroke="#000" stroke-width="2" fill="#fff"/><path d="M1357 794.45a6 6 0 0 1 6-6h186a6 6 0 0 1 6 6V899.6c-33.07-18.57-53.66-18.57-66.13-18.57-19.8 0-46.14 18.57-65.94 18.57-12.27 0-33.06 0-65.93-18.57z" stroke="#000" stroke-width="2" fill="#fff"/><path d="M1368 804.25a6 6 0 0 1 6-6h186a6 6 0 0 1 6 6v105.18c-33.07-18.57-53.66-18.57-66.13-18.57-19.8 0-46.14 18.57-65.94 18.57-12.27 0-33.06 0-65.93-18.57z" stroke="#000" stroke-width="2" fill="#fff"/><use xlink:href="#n" transform="matrix(1,0,0,1,1373.0000025862141,803.2547663388368) translate(11.248697916666657 29.30902777777778)"/><use xlink:href="#o" transform="matrix(1,0,0,1,1373.0000025862141,803.2547663388368) translate(110.21788194444444 29.30902777777778)"/><use xlink:href="#p" transform="matrix(1,0,0,1,1373.0000025862141,803.2547663388368) translate(36.12391493055556 61.57465277777778)"/><use xlink:href="#q" transform="matrix(1,0,0,1,1373.0000025862141,803.2547663388368) translate(86.30837673611111 61.57465277777778)"/><path d="M1307.5 834h37" stroke="#3a414a" fill="none"/><path d="M1307.5 834.48h-.5v-.96h.5zM1345 834.48h-.5v-.96h.5z" stroke="#3a414a" stroke-width=".05" fill="#3a414a"/><path d="M1026 1117a6 6 0 0 1 6-6h228a6 6 0 0 1 6 6v28a6 6 0 0 1-6 6h-228a6 6 0 0 1-6-6z" fill="none"/><use xlink:href="#l" transform="matrix(1,0,0,1,1026.0000025862141,1111) translate(0 28.08376736111111)"/><use xlink:href="#r" transform="matrix(1,0,0,1,1026.0000025862141,1111) translate(12.5 28.08376736111111)"/><path d="M1026 1197a6 6 0 0 1 6-6h288a6 6 0 0 1 6 6v28a6 6 0 0 1-6 6h-288a6 6 0 0 1-6-6z" fill="none"/><use xlink:href="#l" transform="matrix(1,0,0,1,1026.0000025862141,1191) translate(0 28.08376736111111)"/><use xlink:href="#s" transform="matrix(1,0,0,1,1026.0000025862141,1191) translate(12.5 28.08376736111111)"/><path d="M1026 1240a6 6 0 0 1 6-6h328a6 6 0 0 1 6 6v28a6 6 0 0 1-6 6h-328a6 6 0 0 1-6-6z" fill="none"/><use xlink:href="#l" transform="matrix(1,0,0,1,1026.0000025862141,1234) translate(0 28.08376736111111)"/><use xlink:href="#t" transform="matrix(1,0,0,1,1026.0000025862141,1234) translate(12.5 28.08376736111111)"/><path d="M1026 1283a6 6 0 0 1 6-6h228a6 6 0 0 1 6 6v28a6 6 0 0 1-6 6h-228a6 6 0 0 1-6-6z" fill="none"/><use xlink:href="#l" transform="matrix(1,0,0,1,1026.0000025862141,1277) translate(0 28.08376736111111)"/><use xlink:href="#u" transform="matrix(1,0,0,1,1026.0000025862141,1277) translate(12.5 28.08376736111111)"/><path d="M980 1095.5v32.42a6 6 0 0 0 6 6h39.5" stroke="#3a414a" fill="none"/><path d="M980.48 1095.5h-.96v-.5h.96zM1026 1134.4h-.5v-.96h.5z" stroke="#3a414a" stroke-width=".05" fill="#3a414a"/><path d="M980 1095.5v70.83a6 6 0 0 0 6 6h39.5" stroke="#3a414a" fill="none"/><path d="M980.48 1095.5h-.96v-.5h.96zM1026 1172.8h-.5v-.94h.5z" stroke="#3a414a" stroke-width=".05" fill="#3a414a"/><path d="M980 1095.5v110.17a6 6 0 0 0 6 6h39.5" stroke="#3a414a" fill="none"/><path d="M980.48 1095.5h-.96v-.5h.96zM1026 1212.14h-.5v-.95h.5z" stroke="#3a414a" stroke-width=".05" fill="#3a414a"/><path d="M980 1095.5V1246a6 6 0 0 0 6 6h39.5" stroke="#3a414a" fill="none"/><path d="M980.48 1095.5h-.96v-.5h.96zM1026 1252.47h-.5v-.94h.5z" stroke="#3a414a" stroke-width=".05" fill="#3a414a"/><path d="M980 1095.5v196.83a6 6 0 0 0 6 6h39.5" stroke="#3a414a" fill="none"/><path d="M980.48 1095.5h-.96v-.5h.96zM1026 1298.8h-.5v-.94h.5z" stroke="#3a414a" stroke-width=".05" fill="#3a414a"/><path d="M1026 1323a6 6 0 0 1 6-6h308a6 6 0 0 1 6 6v28a6 6 0 0 1-6 6h-308a6 6 0 0 1-6-6z" fill="none"/><g><use xlink:href="#l" transform="matrix(1,0,0,1,1026.0000025862141,1317) translate(0 28.08376736111111)"/><use xlink:href="#v" transform="matrix(1,0,0,1,1026.0000025862141,1317) translate(12.5 28.08376736111111)"/></g><path d="M980 1095.5V1334a6 6 0 0 0 6 6h39.5" stroke="#3a414a" fill="none"/><path d="M980.48 1095.5h-.96v-.5h.96zM1026 1340.47h-.5v-.94h.5z" stroke="#3a414a" stroke-width=".05" fill="#3a414a"/><defs><path d="M128 0v-1118h278l12 217c60-163 185-234 319-234 143 0 236 81 288 251 63-172 205-251 359-251 205 0 357 138 357 381V0h-301v-697c0-126-76-187-177-187-114 0-184 79-184 196V0H789v-705c0-109-72-179-174-179-106 0-187 74-187 208V0H128" id="w"/><path d="M440 22C227 22 68-92 68-313c0-250 202-322 422-343 195-21 271-24 271-105 0-95-63-149-175-149-116 0-187 57-211 129l-275-46c57-194 237-305 487-305 240 0 474 108 474 379V0H777v-155h-10C713-51 605 22 440 22zm85-211c140 0 238-93 238-211v-121c-37 26-156 42-222 51-111 16-185 59-185 149 0 87 70 132 169 132" id="x"/><path d="M428-647V0H128v-1118h283l4 231c63-156 176-245 348-245 232 0 384 159 384 421V0H847v-659c0-139-76-222-202-222-128 0-217 86-217 234" id="y"/><path d="M513 14c-232 0-385-159-385-421v-711h300v659c0 139 76 222 202 222 127 0 217-86 217-234v-647h301V0H864l-4-232C797-74 683 14 513 14" id="z"/><path d="M572 22C302 22 117-98 78-306l279-48c29 105 101 156 224 156 114 0 185-48 185-115 0-118-228-130-337-155-215-49-322-150-322-317 0-215 187-347 470-347 265 0 424 116 466 298l-266 47c-24-76-87-130-196-130-98 0-174 46-174 113 0 56 38 95 144 117l201 40c216 44 320 143 320 302 0 220-207 367-500 367" id="A"/><path d="M628 22C291 22 81-210 81-554c0-346 210-578 547-578 265 0 455 142 497 372l-279 52c-25-116-99-188-215-188-160 0-244 139-244 341 0 200 84 341 244 341 116 0 193-74 217-195l279 51C1085-123 896 22 628 22" id="B"/><path d="M128 0v-1118h290v195h12c54-169 184-238 367-200v268c-27-8-86-15-130-15-138 0-239 95-239 234V0H128" id="C"/><path d="M128 0v-1118h300V0H128zm150-1264c-91 0-165-68-165-154 0-85 74-154 165-154 90 0 165 69 165 154 0 86-75 154-165 154" id="D"/><path d="M128 418v-1536h295v188h14c41-89 129-202 319-202 248 0 453 193 453 575 0 372-197 576-455 576-183 0-275-108-317-198h-9v597H128zm534-640c156 0 240-139 240-336 0-196-83-334-240-334-154 0-241 131-241 334 0 202 88 336 241 336" id="E"/><path d="M683-1118v229H474v562c0 71 29 104 102 104 23 0 73-7 95-13l43 225C647 9 580 16 520 16 296 16 174-96 174-301v-588H20v-229h154v-266h300v266h209" id="F"/><g id="a"><use transform="matrix(0.01953125,0,0,0.01953125,0,0)" xlink:href="#w"/><use transform="matrix(0.01953125,0,0,0.01953125,36.50390625,0)" xlink:href="#x"/><use transform="matrix(0.01953125,0,0,0.01953125,59.7265625,0)" xlink:href="#y"/><use transform="matrix(0.01953125,0,0,0.01953125,84.62890625,0)" xlink:href="#z"/><use transform="matrix(0.01953125,0,0,0.01953125,109.53125,0)" xlink:href="#A"/><use transform="matrix(0.01953125,0,0,0.01953125,131.93359375,0)" xlink:href="#B"/><use transform="matrix(0.01953125,0,0,0.01953125,155.46875,0)" xlink:href="#C"/><use transform="matrix(0.01953125,0,0,0.01953125,172.05078125,0)" xlink:href="#D"/><use transform="matrix(0.01953125,0,0,0.01953125,182.890625,0)" xlink:href="#E"/><use transform="matrix(0.01953125,0,0,0.01953125,208.10546875,0)" xlink:href="#F"/></g><g id="b"><use transform="matrix(0.01953125,0,0,0.01953125,0,0)" xlink:href="#A"/><use transform="matrix(0.01953125,0,0,0.01953125,22.40234375,0)" xlink:href="#B"/><use transform="matrix(0.01953125,0,0,0.01953125,45.9375,0)" xlink:href="#C"/><use transform="matrix(0.01953125,0,0,0.01953125,62.51953125,0)" xlink:href="#D"/><use transform="matrix(0.01953125,0,0,0.01953125,73.359375,0)" xlink:href="#E"/><use transform="matrix(0.01953125,0,0,0.01953125,98.57421875,0)" xlink:href="#F"/><use transform="matrix(0.01953125,0,0,0.01953125,112.9296875,0)" xlink:href="#A"/></g><path d="M537 19C279 19 81-185 81-557c0-382 206-575 454-575 190 0 278 113 318 202h10v-560h300V0H868v-179h-15C812-89 719 19 537 19zm92-241c153 0 240-134 240-336 0-203-86-334-240-334-158 0-240 138-240 334 0 197 84 336 240 336" id="G"/><g id="c"><use transform="matrix(0.01953125,0,0,0.01953125,0,0)" xlink:href="#G"/><use transform="matrix(0.01953125,0,0,0.01953125,25.21484375,0)" xlink:href="#x"/><use transform="matrix(0.01953125,0,0,0.01953125,48.4375,0)" xlink:href="#F"/><use transform="matrix(0.01953125,0,0,0.01953125,63.28125,0)" xlink:href="#x"/></g><path d="M180 0v-1490h901v168H370v510h643v168H370V0H180" id="H"/><path d="M628 24c-324 0-524-230-524-574 0-343 198-582 503-582 237 0 487 146 487 559v75H286c9 234 145 362 343 362 132 0 231-58 273-172l174 48C1024-91 857 24 628 24zM287-650h624c-17-190-120-322-304-322-192 0-309 151-320 322" id="I"/><path d="M471 26C259 26 90-98 90-318c0-256 228-303 435-329 202-27 287-16 287-108 0-139-79-219-234-219-161 0-248 86-283 164l-173-57c86-203 278-265 451-265 150 0 419 46 419 395V0H815v-152h-12C765-73 660 26 471 26zm31-159c199 0 310-134 310-271v-155c-30 35-226 55-295 64-131 17-246 59-246 186 0 116 97 176 231 176" id="J"/><path d="M598-1118v154H368v674c0 100 37 144 132 144 23 0 62-6 92-12L629-6c-37 13-88 20-134 20-193 0-307-107-307-290v-688H20v-154h168v-266h180v266h230" id="K"/><path d="M537 14c-226 0-379-139-379-422v-710h180v695c0 172 97 275 253 275 160 0 281-109 281-300v-670h181V0H879v-209C806-46 684 14 537 14" id="L"/><path d="M158 0v-1118h174v172h12c41-113 157-188 290-188 26 0 70 2 91 3v181c-11-2-60-10-108-10-161 0-279 109-279 260V0H158" id="M"/><path d="M934 0v166H0V0h934" id="N"/><path d="M338-670V0H158v-1118h173l1 207c72-158 192-221 342-221 226 0 378 139 378 422V0H872v-695c0-172-96-275-252-275-161 0-282 109-282 300" id="O"/><path d="M338-1490V0H158v-1490h180" id="P"/><path d="M140 405l46-156c120 36 205 19 263-150l32-93L54-1118h197c107 313 237 620 324 950 87-331 219-637 326-950h196L606 167c-68 178-176 259-334 259-64 0-113-12-132-21" id="Q"/><path d="M538 24C308 24 148-78 108-271l171-41c32 123 123 178 257 178 156 0 256-77 256-169 0-77-54-128-164-154l-186-44c-203-48-300-148-300-305 0-192 176-326 414-326 230 0 351 112 402 269l-163 42c-31-80-94-158-238-158-133 0-233 69-233 162 0 83 57 129 188 160l169 40c203 48 298 149 298 302 0 196-179 339-441 339" id="R"/><path d="M158 0v-1118h180V0H158zm91-1301c-68 0-125-53-125-119s57-119 125-119c69 0 126 53 126 119s-57 119-126 119" id="S"/><path d="M295 13c-75 0-135-60-135-135s60-135 135-135 135 60 135 135S370 13 295 13" id="T"/><path d="M158 418v-1536h174v179h20c37-59 106-193 324-193 279 0 474 222 474 576 0 356-194 580-473 580-213 0-288-135-325-197h-14v591H158zm492-555c209 0 317-186 317-421 0-232-105-413-317-413-206 0-314 166-314 413 0 249 111 421 314 421" id="U"/><g id="d"><use transform="matrix(0.01193576388888889,0,0,0.01193576388888889,0,0)" xlink:href="#H"/><use transform="matrix(0.01193576388888889,0,0,0.01193576388888889,13.463541666666668,0)" xlink:href="#I"/><use transform="matrix(0.01193576388888889,0,0,0.01193576388888889,27.95355902777778,0)" xlink:href="#J"/><use transform="matrix(0.01193576388888889,0,0,0.01193576388888889,41.6796875,0)" xlink:href="#K"/><use transform="matrix(0.01193576388888889,0,0,0.01193576388888889,49.67664930555556,0)" xlink:href="#L"/><use transform="matrix(0.01193576388888889,0,0,0.01193576388888889,64.130859375,0)" xlink:href="#M"/><use transform="matrix(0.01193576388888889,0,0,0.01193576388888889,72.92751736111111,0)" xlink:href="#I"/><use transform="matrix(0.01193576388888889,0,0,0.01193576388888889,87.17881944444444,0)" xlink:href="#N"/><use transform="matrix(0.01193576388888889,0,0,0.01193576388888889,98.32682291666667,0)" xlink:href="#J"/><use transform="matrix(0.01193576388888889,0,0,0.01193576388888889,112.0529513888889,0)" xlink:href="#O"/><use transform="matrix(0.01193576388888889,0,0,0.01193576388888889,126.49522569444446,0)" xlink:href="#J"/><use transform="matrix(0.01193576388888889,0,0,0.01193576388888889,140.22135416666669,0)" xlink:href="#P"/><use transform="matrix(0.01193576388888889,0,0,0.01193576388888889,146.26085069444446,0)" xlink:href="#Q"/><use transform="matrix(0.01193576388888889,0,0,0.01193576388888889,159.99891493055557,0)" xlink:href="#R"/><use transform="matrix(0.01193576388888889,0,0,0.01193576388888889,172.90147569444446,0)" xlink:href="#S"/><use transform="matrix(0.01193576388888889,0,0,0.01193576388888889,178.82161458333334,0)" xlink:href="#R"/><use transform="matrix(0.01193576388888889,0,0,0.01193576388888889,191.72417534722223,0)" xlink:href="#T"/><use transform="matrix(0.01193576388888889,0,0,0.01193576388888889,198.76627604166669,0)" xlink:href="#U"/><use transform="matrix(0.01193576388888889,0,0,0.01193576388888889,213.2562934027778,0)" xlink:href="#Q"/></g><path d="M180 0v-1490h510c348 0 508 194 508 460 0 198-88 351-276 417L1256 0h-220L726-579c-117 2-238 0-356 1V0H180zm190-747h312c235 0 327-108 327-283 0-177-92-293-329-293H370v576" id="V"/><path d="M180 0v-1490h510c348 0 508 209 508 474 0 266-160 477-507 477H370V0H180zm190-706h312c236 0 327-133 327-310 0-176-91-307-329-307H370v617" id="W"/><path d="M678-1118v154H420V0H240v-964H20v-154h220v-149c0-194 155-293 318-293 85 0 141 18 168 30l-50 154c-19-6-47-17-97-17-111 0-159 58-159 166v109h258" id="X"/><g id="e"><use transform="matrix(0.01193576388888889,0,0,0.01193576388888889,0,0)" xlink:href="#H"/><use transform="matrix(0.01193576388888889,0,0,0.01193576388888889,14.430338541666668,0)" xlink:href="#V"/><use transform="matrix(0.01193576388888889,0,0,0.01193576388888889,30.161675347222225,0)" xlink:href="#S"/><use transform="matrix(0.01193576388888889,0,0,0.01193576388888889,36.081814236111114,0)" xlink:href="#W"/><use transform="matrix(0.01193576388888889,0,0,0.01193576388888889,51.69379340277778,0)" xlink:href="#N"/><use transform="matrix(0.01193576388888889,0,0,0.01193576388888889,62.84179687500001,0)" xlink:href="#X"/><use transform="matrix(0.01193576388888889,0,0,0.01193576388888889,71.88910590277779,0)" xlink:href="#S"/><use transform="matrix(0.01193576388888889,0,0,0.01193576388888889,77.80924479166667,0)" xlink:href="#P"/><use transform="matrix(0.01193576388888889,0,0,0.01193576388888889,84.08745659722223,0)" xlink:href="#K"/><use transform="matrix(0.01193576388888889,0,0,0.01193576388888889,91.84570312500001,0)" xlink:href="#I"/><use transform="matrix(0.01193576388888889,0,0,0.01193576388888889,106.09700520833334,0)" xlink:href="#M"/><use transform="matrix(0.01193576388888889,0,0,0.01193576388888889,113.7717013888889,0)" xlink:href="#T"/><use transform="matrix(0.01193576388888889,0,0,0.01193576388888889,120.81380208333334,0)" xlink:href="#U"/><use transform="matrix(0.01193576388888889,0,0,0.01193576388888889,135.30381944444446,0)" xlink:href="#Q"/></g><path d="M677 24c-213 0-288-135-325-197h-20V0H158v-1490h180v551h14c37-59 106-193 324-193 279 0 474 222 474 576 0 356-194 580-473 580zm-27-161c209 0 317-186 317-421 0-232-105-413-317-413-206 0-314 166-314 413 0 249 111 421 314 421" id="Y"/><path d="M577 24c-279 0-473-224-473-580 0-354 195-576 474-576 218 0 287 134 324 193h14v-551h180V0H922v-173h-20C865-111 790 24 577 24zm27-161c203 0 314-172 314-421 0-247-108-413-314-413-212 0-317 181-317 413 0 235 108 421 317 421" id="Z"/><g id="f"><use transform="matrix(0.01193576388888889,0,0,0.01193576388888889,0,0)" xlink:href="#V"/><use transform="matrix(0.01193576388888889,0,0,0.01193576388888889,15.37326388888889,0)" xlink:href="#I"/><use transform="matrix(0.01193576388888889,0,0,0.01193576388888889,29.624565972222225,0)" xlink:href="#R"/><use transform="matrix(0.01193576388888889,0,0,0.01193576388888889,42.527126736111114,0)" xlink:href="#I"/><use transform="matrix(0.01193576388888889,0,0,0.01193576388888889,56.77842881944445,0)" xlink:href="#K"/><use transform="matrix(0.01193576388888889,0,0,0.01193576388888889,64.775390625,0)" xlink:href="#N"/><use transform="matrix(0.01193576388888889,0,0,0.01193576388888889,76.74696180555556,0)" xlink:href="#Y"/><use transform="matrix(0.01193576388888889,0,0,0.01193576388888889,91.71440972222223,0)" xlink:href="#I"/><use transform="matrix(0.01193576388888889,0,0,0.01193576388888889,105.96571180555556,0)" xlink:href="#Z"/><use transform="matrix(0.01193576388888889,0,0,0.01193576388888889,120.93315972222223,0)" xlink:href="#T"/><use transform="matrix(0.01193576388888889,0,0,0.01193576388888889,127.97526041666667,0)" xlink:href="#U"/><use transform="matrix(0.01193576388888889,0,0,0.01193576388888889,142.46527777777777,0)" xlink:href="#Q"/></g><path d="M633 22C291 22 81-200 81-553c0-345 210-579 537-579 292 0 525 185 525 567v84H378c7 183 109 277 260 277 105 0 184-46 216-132l272 51C1071-99 893 22 633 22zM380-669h474c-15-146-94-237-233-237-143 0-229 99-241 237" id="aa"/><g id="g"><use transform="matrix(0.01953125,0,0,0.01953125,0,0)" xlink:href="#w"/><use transform="matrix(0.01953125,0,0,0.01953125,36.50390625,0)" xlink:href="#aa"/><use transform="matrix(0.01953125,0,0,0.01953125,60.33203125,0)" xlink:href="#F"/><use transform="matrix(0.01953125,0,0,0.01953125,75.17578125,0)" xlink:href="#x"/><use transform="matrix(0.01953125,0,0,0.01953125,98.3984375,0)" xlink:href="#G"/><use transform="matrix(0.01953125,0,0,0.01953125,123.61328125,0)" xlink:href="#x"/><use transform="matrix(0.01953125,0,0,0.01953125,146.8359375,0)" xlink:href="#F"/><use transform="matrix(0.01953125,0,0,0.01953125,161.6796875,0)" xlink:href="#x"/></g><path d="M628 22C291 22 81-210 81-554c0-346 210-578 547-578 336 0 547 232 547 578 0 344-211 576-547 576zm0-236c160 0 242-146 242-341 0-197-82-341-242-341S387-753 387-555c0 195 81 341 241 341" id="ab"/><g id="h"><use transform="matrix(0.01953125,0,0,0.01953125,0,0)" xlink:href="#ab"/><use transform="matrix(0.01953125,0,0,0.01953125,24.53125,0)" xlink:href="#z"/><use transform="matrix(0.01953125,0,0,0.01953125,49.43359375,0)" xlink:href="#F"/><use transform="matrix(0.01953125,0,0,0.01953125,64.08203125,0)" xlink:href="#E"/><use transform="matrix(0.01953125,0,0,0.01953125,89.296875,0)" xlink:href="#z"/><use transform="matrix(0.01953125,0,0,0.01953125,114.19921875,0)" xlink:href="#F"/></g><path d="M180 0v-1490h908v168H370v486h669v168H370v500h727V0H180" id="ac"/><path d="M180 0v-1490h224l606 953c40 63 108 177 176 312-27-437-7-821-13-1265h190V0h-226C860-448 622-778 356-1262c27 476 11 792 15 1262H180" id="ad"/><path d="M783 20c-382 0-661-292-661-764 0-473 279-766 661-766 302 0 548 182 601 489h-190c-42-204-217-313-411-313-268 0-476 208-476 590 0 381 209 588 476 588 195 0 369-110 411-313h190c-52 303-296 489-601 489" id="ae"/><path d="M784 20c-382 0-662-292-662-764 0-473 280-766 662-766s660 293 660 766c0 472-278 764-660 764zm0-176c266 0 475-207 475-588 0-383-209-590-475-590-268 0-477 208-477 590 0 380 209 588 477 588" id="af"/><path d="M645 0H180v-1490h484c435 0 692 280 692 742 0 466-257 748-711 748zM370-168h263c363 0 539-218 539-580 0-358-176-574-521-574H370v1154" id="ag"/><g id="i"><use transform="matrix(0.010850694444444444,0,0,0.010850694444444444,0,0)" xlink:href="#ac"/><use transform="matrix(0.010850694444444444,0,0,0.010850694444444444,13.35720486111111,0)" xlink:href="#ad"/><use transform="matrix(0.010850694444444444,0,0,0.010850694444444444,30.09982638888889,0)" xlink:href="#ae"/><use transform="matrix(0.010850694444444444,0,0,0.010850694444444444,46.33246527777778,0)" xlink:href="#af"/><use transform="matrix(0.010850694444444444,0,0,0.010850694444444444,63.32465277777778,0)" xlink:href="#ag"/><use transform="matrix(0.010850694444444444,0,0,0.010850694444444444,79.36197916666667,0)" xlink:href="#ac"/></g><path d="M180 0v-1490h270l367 940c28 72 75 218 110 339 35-117 81-264 110-339l362-940h271V0h-187c2-448-5-837 7-1287-157 497-311 829-483 1287H842C666-458 514-784 354-1284c12 438 5 843 7 1284H180" id="ah"/><g id="j"><use transform="matrix(0.010850694444444444,0,0,0.010850694444444444,0,0)" xlink:href="#ah"/><use transform="matrix(0.010850694444444444,0,0,0.010850694444444444,20.07378472222222,0)" xlink:href="#I"/><use transform="matrix(0.010850694444444444,0,0,0.010850694444444444,33.029513888888886,0)" xlink:href="#K"/><use transform="matrix(0.010850694444444444,0,0,0.010850694444444444,40.40798611111111,0)" xlink:href="#J"/><use transform="matrix(0.010850694444444444,0,0,0.010850694444444444,52.88628472222221,0)" xlink:href="#Z"/><use transform="matrix(0.010850694444444444,0,0,0.010850694444444444,66.49305555555554,0)" xlink:href="#J"/><use transform="matrix(0.010850694444444444,0,0,0.010850694444444444,78.97135416666666,0)" xlink:href="#K"/><use transform="matrix(0.010850694444444444,0,0,0.010850694444444444,86.34982638888887,0)" xlink:href="#J"/></g><path d="M545 20c-263 0-445-160-445-446v-80h190v80c0 182 102 279 255 279 152 0 254-97 254-279v-1064h190v1064c0 286-181 446-444 446" id="ai"/><path d="M657 26c-323 0-524-166-541-416h195c15 169 171 246 346 246 202 0 356-106 356-265 5-203-294-238-475-293-239-73-380-191-380-389 0-252 224-419 512-419 294 0 499 171 508 396H992c-17-145-151-228-328-228-193 0-321 102-321 242 0 156 175 211 284 241l149 41c160 44 422 134 422 412 0 244-197 432-541 432" id="aj"/><g id="k"><use transform="matrix(0.010850694444444444,0,0,0.010850694444444444,0,0)" xlink:href="#ai"/><use transform="matrix(0.010850694444444444,0,0,0.010850694444444444,12.684461805555555,0)" xlink:href="#aj"/><use transform="matrix(0.010850694444444444,0,0,0.010850694444444444,26.94227430555556,0)" xlink:href="#af"/><use transform="matrix(0.010850694444444444,0,0,0.010850694444444444,43.93446180555556,0)" xlink:href="#ad"/><use transform="matrix(0.010850694444444444,0,0,0.010850694444444444,60.67708333333333,0)" xlink:href="#R"/></g><path d="M158 0v-1118h175l1 205c55-151 181-225 313-225 147 0 245 90 285 228 53-141 190-228 352-228 194 0 352 125 352 384V0h-181v-749c0-161-105-225-225-225-151 0-243 103-243 244V0H807v-767c0-124-93-207-219-207-131 0-250 92-250 270V0H158" id="ak"/><path d="M613 24c-304 0-509-231-509-576 0-350 205-580 509-580 305 0 511 230 511 580 0 345-206 576-511 576zm0-161c226 0 329-195 329-415 0-222-103-419-329-419-223 0-326 196-326 419 0 220 103 415 326 415" id="al"/><path d="M613 24c-304 0-509-231-509-576 0-350 205-580 509-580 216 0 392 114 453 309l-173 49c-33-115-133-197-280-197-223 0-326 196-326 419 0 220 103 415 326 415 150 0 252-85 285-206l172 49C1010-95 832 24 613 24" id="am"/><path d="M481 0L54-1118h197c107 314 236 620 325 951 87-331 217-637 324-951h197L670 0H481" id="an"/><g id="m"><use transform="matrix(0.010850694444444444,0,0,0.010850694444444444,0,0)" xlink:href="#X"/><use transform="matrix(0.010850694444444444,0,0,0.010850694444444444,7.573784722222222,0)" xlink:href="#I"/><use transform="matrix(0.010850694444444444,0,0,0.010850694444444444,20.74652777777778,0)" xlink:href="#J"/><use transform="matrix(0.010850694444444444,0,0,0.010850694444444444,33.224826388888886,0)" xlink:href="#K"/><use transform="matrix(0.010850694444444444,0,0,0.010850694444444444,40.494791666666664,0)" xlink:href="#L"/><use transform="matrix(0.010850694444444444,0,0,0.010850694444444444,53.634982638888886,0)" xlink:href="#M"/><use transform="matrix(0.010850694444444444,0,0,0.010850694444444444,61.631944444444436,0)" xlink:href="#I"/><use transform="matrix(0.010850694444444444,0,0,0.010850694444444444,74.5876736111111,0)" xlink:href="#N"/><use transform="matrix(0.010850694444444444,0,0,0.010850694444444444,85.47092013888889,0)" xlink:href="#S"/><use transform="matrix(0.010850694444444444,0,0,0.010850694444444444,90.85286458333333,0)" xlink:href="#ak"/><use transform="matrix(0.010850694444444444,0,0,0.010850694444444444,110.31901041666666,0)" xlink:href="#U"/><use transform="matrix(0.010850694444444444,0,0,0.010850694444444444,123.92578125,0)" xlink:href="#al"/><use transform="matrix(0.010850694444444444,0,0,0.010850694444444444,137.25043402777777,0)" xlink:href="#M"/><use transform="matrix(0.010850694444444444,0,0,0.010850694444444444,145.96354166666666,0)" xlink:href="#K"/><use transform="matrix(0.010850694444444444,0,0,0.010850694444444444,153.34201388888889,0)" xlink:href="#J"/><use transform="matrix(0.010850694444444444,0,0,0.010850694444444444,165.8203125,0)" xlink:href="#O"/><use transform="matrix(0.010850694444444444,0,0,0.010850694444444444,178.94965277777777,0)" xlink:href="#am"/><use transform="matrix(0.010850694444444444,0,0,0.010850694444444444,191.64496527777777,0)" xlink:href="#I"/><use transform="matrix(0.010850694444444444,0,0,0.010850694444444444,204.60069444444443,0)" xlink:href="#T"/><use transform="matrix(0.010850694444444444,0,0,0.010850694444444444,211.00260416666666,0)" xlink:href="#am"/><use transform="matrix(0.010850694444444444,0,0,0.010850694444444444,223.69791666666666,0)" xlink:href="#R"/><use transform="matrix(0.010850694444444444,0,0,0.010850694444444444,235.42751736111111,0)" xlink:href="#an"/></g><g id="n"><use transform="matrix(0.010850694444444444,0,0,0.010850694444444444,0,0)" xlink:href="#ac"/><use transform="matrix(0.010850694444444444,0,0,0.010850694444444444,13.35720486111111,0)" xlink:href="#ad"/><use transform="matrix(0.010850694444444444,0,0,0.010850694444444444,30.09982638888889,0)" xlink:href="#ae"/><use transform="matrix(0.010850694444444444,0,0,0.010850694444444444,46.33246527777778,0)" xlink:href="#af"/><use transform="matrix(0.010850694444444444,0,0,0.010850694444444444,63.32465277777778,0)" xlink:href="#ag"/><use transform="matrix(0.010850694444444444,0,0,0.010850694444444444,79.36197916666667,0)" xlink:href="#ac"/></g><path d="M338-670V0H158v-1490h180v566c73-149 190-208 336-208 226 0 379 139 379 422V0H872v-695c0-172-96-275-252-275-161 0-282 109-282 300" id="ao"/><path d="M370-1490V0H180v-1490h190" id="ap"/><g id="o"><use transform="matrix(0.010850694444444444,0,0,0.010850694444444444,0,0)" xlink:href="#ae"/><use transform="matrix(0.010850694444444444,0,0,0.010850694444444444,16.23263888888889,0)" xlink:href="#ao"/><use transform="matrix(0.010850694444444444,0,0,0.010850694444444444,29.37282986111111,0)" xlink:href="#ap"/><use transform="matrix(0.010850694444444444,0,0,0.010850694444444444,35.34071180555556,0)" xlink:href="#W"/></g><path d="M180 0v-1490h528c311 0 458 177 458 395 0 191-114 278-244 313v14c139 9 302 137 302 371 0 225-148 397-499 397H180zm190-168h350c232 0 321-102 321-231 0-149-120-277-311-277H370v508zm0-668h328c160 0 286-101 286-255 0-129-87-231-280-231H370v486" id="aq"/><g id="p"><use transform="matrix(0.010850694444444444,0,0,0.010850694444444444,0,0)" xlink:href="#aq"/><use transform="matrix(0.010850694444444444,0,0,0.010850694444444444,14.539930555555555,0)" xlink:href="#ac"/><use transform="matrix(0.010850694444444444,0,0,0.010850694444444444,27.897135416666664,0)" xlink:href="#ag"/></g><g id="q"><use transform="matrix(0.010850694444444444,0,0,0.010850694444444444,0,0)" xlink:href="#H"/><use transform="matrix(0.010850694444444444,0,0,0.010850694444444444,13.118489583333332,0)" xlink:href="#S"/><use transform="matrix(0.010850694444444444,0,0,0.010850694444444444,18.50043402777778,0)" xlink:href="#P"/><use transform="matrix(0.010850694444444444,0,0,0.010850694444444444,23.88237847222222,0)" xlink:href="#I"/><use transform="matrix(0.010850694444444444,0,0,0.010850694444444444,36.838107638888886,0)" xlink:href="#R"/></g><path d="M65 0l393-574-370-544h210c88 136 192 297 267 435 67-142 176-302 264-435h206L661-564 1053 0H844c-94-144-206-310-287-458C484-308 366-142 273 0H65" id="ar"/><g id="r"><use transform="matrix(0.010850694444444444,0,0,0.010850694444444444,0,0)" xlink:href="#X"/><use transform="matrix(0.010850694444444444,0,0,0.010850694444444444,7.573784722222222,0)" xlink:href="#I"/><use transform="matrix(0.010850694444444444,0,0,0.010850694444444444,20.74652777777778,0)" xlink:href="#J"/><use transform="matrix(0.010850694444444444,0,0,0.010850694444444444,33.224826388888886,0)" xlink:href="#K"/><use transform="matrix(0.010850694444444444,0,0,0.010850694444444444,40.494791666666664,0)" xlink:href="#L"/><use transform="matrix(0.010850694444444444,0,0,0.010850694444444444,53.634982638888886,0)" xlink:href="#M"/><use transform="matrix(0.010850694444444444,0,0,0.010850694444444444,61.631944444444436,0)" xlink:href="#I"/><use transform="matrix(0.010850694444444444,0,0,0.010850694444444444,74.5876736111111,0)" xlink:href="#N"/><use transform="matrix(0.010850694444444444,0,0,0.010850694444444444,85.47092013888889,0)" xlink:href="#ak"/><use transform="matrix(0.010850694444444444,0,0,0.010850694444444444,104.93706597222221,0)" xlink:href="#J"/><use transform="matrix(0.010850694444444444,0,0,0.010850694444444444,117.41536458333333,0)" xlink:href="#K"/><use transform="matrix(0.010850694444444444,0,0,0.010850694444444444,124.6853298611111,0)" xlink:href="#M"/><use transform="matrix(0.010850694444444444,0,0,0.010850694444444444,133.3984375,0)" xlink:href="#S"/><use transform="matrix(0.010850694444444444,0,0,0.010850694444444444,138.78038194444446,0)" xlink:href="#ar"/><use transform="matrix(0.010850694444444444,0,0,0.010850694444444444,150.91145833333334,0)" xlink:href="#T"/><use transform="matrix(0.010850694444444444,0,0,0.010850694444444444,157.31336805555557,0)" xlink:href="#am"/><use transform="matrix(0.010850694444444444,0,0,0.010850694444444444,170.00868055555557,0)" xlink:href="#R"/><use transform="matrix(0.010850694444444444,0,0,0.010850694444444444,181.73828125000003,0)" xlink:href="#an"/></g><g id="s"><use transform="matrix(0.010850694444444444,0,0,0.010850694444444444,0,0)" xlink:href="#X"/><use transform="matrix(0.010850694444444444,0,0,0.010850694444444444,7.573784722222222,0)" xlink:href="#I"/><use transform="matrix(0.010850694444444444,0,0,0.010850694444444444,20.74652777777778,0)" xlink:href="#J"/><use transform="matrix(0.010850694444444444,0,0,0.010850694444444444,33.224826388888886,0)" xlink:href="#K"/><use transform="matrix(0.010850694444444444,0,0,0.010850694444444444,40.494791666666664,0)" xlink:href="#L"/><use transform="matrix(0.010850694444444444,0,0,0.010850694444444444,53.634982638888886,0)" xlink:href="#M"/><use transform="matrix(0.010850694444444444,0,0,0.010850694444444444,61.631944444444436,0)" xlink:href="#I"/><use transform="matrix(0.010850694444444444,0,0,0.010850694444444444,74.5876736111111,0)" xlink:href="#N"/><use transform="matrix(0.010850694444444444,0,0,0.010850694444444444,85.47092013888889,0)" xlink:href="#S"/><use transform="matrix(0.010850694444444444,0,0,0.010850694444444444,90.85286458333333,0)" xlink:href="#ak"/><use transform="matrix(0.010850694444444444,0,0,0.010850694444444444,110.31901041666666,0)" xlink:href="#U"/><use transform="matrix(0.010850694444444444,0,0,0.010850694444444444,123.92578125,0)" xlink:href="#al"/><use transform="matrix(0.010850694444444444,0,0,0.010850694444444444,137.25043402777777,0)" xlink:href="#M"/><use transform="matrix(0.010850694444444444,0,0,0.010850694444444444,145.96354166666666,0)" xlink:href="#K"/><use transform="matrix(0.010850694444444444,0,0,0.010850694444444444,153.34201388888889,0)" xlink:href="#J"/><use transform="matrix(0.010850694444444444,0,0,0.010850694444444444,165.8203125,0)" xlink:href="#O"/><use transform="matrix(0.010850694444444444,0,0,0.010850694444444444,178.94965277777777,0)" xlink:href="#am"/><use transform="matrix(0.010850694444444444,0,0,0.010850694444444444,191.64496527777777,0)" xlink:href="#I"/><use transform="matrix(0.010850694444444444,0,0,0.010850694444444444,204.60069444444443,0)" xlink:href="#N"/><use transform="matrix(0.010850694444444444,0,0,0.010850694444444444,215.48394097222223,0)" xlink:href="#M"/><use transform="matrix(0.010850694444444444,0,0,0.010850694444444444,224.19704861111111,0)" xlink:href="#X"/><use transform="matrix(0.010850694444444444,0,0,0.010850694444444444,231.16319444444443,0)" xlink:href="#T"/><use transform="matrix(0.010850694444444444,0,0,0.010850694444444444,237.56510416666666,0)" xlink:href="#U"/><use transform="matrix(0.010850694444444444,0,0,0.010850694444444444,251.171875,0)" xlink:href="#Z"/><use transform="matrix(0.010850694444444444,0,0,0.010850694444444444,264.7786458333333,0)" xlink:href="#X"/></g><path d="M611 442c-248 0-391-105-460-228l146-94c47 65 117 165 314 165 178 0 307-82 307-266v-224h-17C863-141 792-18 576-18c-268 0-472-195-472-546 0-346 197-568 476-568 216 0 288 133 326 193h17v-179h175V29c0 289-215 413-487 413zm-5-620c203 0 314-146 314-390 0-237-108-403-314-403-213 0-319 180-319 403 0 230 109 390 319 390" id="as"/><g id="t"><use transform="matrix(0.010850694444444444,0,0,0.010850694444444444,0,0)" xlink:href="#X"/><use transform="matrix(0.010850694444444444,0,0,0.010850694444444444,7.573784722222222,0)" xlink:href="#I"/><use transform="matrix(0.010850694444444444,0,0,0.010850694444444444,20.74652777777778,0)" xlink:href="#J"/><use transform="matrix(0.010850694444444444,0,0,0.010850694444444444,33.224826388888886,0)" xlink:href="#K"/><use transform="matrix(0.010850694444444444,0,0,0.010850694444444444,40.494791666666664,0)" xlink:href="#L"/><use transform="matrix(0.010850694444444444,0,0,0.010850694444444444,53.634982638888886,0)" xlink:href="#M"/><use transform="matrix(0.010850694444444444,0,0,0.010850694444444444,61.631944444444436,0)" xlink:href="#I"/><use transform="matrix(0.010850694444444444,0,0,0.010850694444444444,74.5876736111111,0)" xlink:href="#N"/><use transform="matrix(0.010850694444444444,0,0,0.010850694444444444,85.47092013888889,0)" xlink:href="#S"/><use transform="matrix(0.010850694444444444,0,0,0.010850694444444444,90.85286458333333,0)" xlink:href="#ak"/><use transform="matrix(0.010850694444444444,0,0,0.010850694444444444,110.31901041666666,0)" xlink:href="#U"/><use transform="matrix(0.010850694444444444,0,0,0.010850694444444444,123.92578125,0)" xlink:href="#al"/><use transform="matrix(0.010850694444444444,0,0,0.010850694444444444,137.25043402777777,0)" xlink:href="#M"/><use transform="matrix(0.010850694444444444,0,0,0.010850694444444444,145.96354166666666,0)" xlink:href="#K"/><use transform="matrix(0.010850694444444444,0,0,0.010850694444444444,153.34201388888889,0)" xlink:href="#J"/><use transform="matrix(0.010850694444444444,0,0,0.010850694444444444,165.8203125,0)" xlink:href="#O"/><use transform="matrix(0.010850694444444444,0,0,0.010850694444444444,178.94965277777777,0)" xlink:href="#am"/><use transform="matrix(0.010850694444444444,0,0,0.010850694444444444,191.64496527777777,0)" xlink:href="#I"/><use transform="matrix(0.010850694444444444,0,0,0.010850694444444444,204.60069444444443,0)" xlink:href="#N"/><use transform="matrix(0.010850694444444444,0,0,0.010850694444444444,215.48394097222223,0)" xlink:href="#M"/><use transform="matrix(0.010850694444444444,0,0,0.010850694444444444,224.19704861111111,0)" xlink:href="#S"/><use transform="matrix(0.010850694444444444,0,0,0.010850694444444444,229.57899305555554,0)" xlink:href="#Z"/><use transform="matrix(0.010850694444444444,0,0,0.010850694444444444,243.18576388888889,0)" xlink:href="#as"/><use transform="matrix(0.010850694444444444,0,0,0.010850694444444444,256.8142361111111,0)" xlink:href="#I"/><use transform="matrix(0.010850694444444444,0,0,0.010850694444444444,269.76996527777777,0)" xlink:href="#T"/><use transform="matrix(0.010850694444444444,0,0,0.010850694444444444,276.171875,0)" xlink:href="#U"/><use transform="matrix(0.010850694444444444,0,0,0.010850694444444444,289.7786458333333,0)" xlink:href="#Z"/><use transform="matrix(0.010850694444444444,0,0,0.010850694444444444,303.38541666666663,0)" xlink:href="#X"/></g><g id="u"><use transform="matrix(0.010850694444444444,0,0,0.010850694444444444,0,0)" xlink:href="#M"/><use transform="matrix(0.010850694444444444,0,0,0.010850694444444444,7.996961805555555,0)" xlink:href="#al"/><use transform="matrix(0.010850694444444444,0,0,0.010850694444444444,21.321614583333332,0)" xlink:href="#am"/><use transform="matrix(0.010850694444444444,0,0,0.010850694444444444,34.01692708333333,0)" xlink:href="#N"/><use transform="matrix(0.010850694444444444,0,0,0.010850694444444444,44.9001736111111,0)" xlink:href="#U"/><use transform="matrix(0.010850694444444444,0,0,0.010850694444444444,58.506944444444436,0)" xlink:href="#M"/><use transform="matrix(0.010850694444444444,0,0,0.010850694444444444,66.8728298611111,0)" xlink:href="#N"/><use transform="matrix(0.010850694444444444,0,0,0.010850694444444444,77.00737847222221,0)" xlink:href="#am"/><use transform="matrix(0.010850694444444444,0,0,0.010850694444444444,89.70269097222221,0)" xlink:href="#L"/><use transform="matrix(0.010850694444444444,0,0,0.010850694444444444,102.84288194444441,0)" xlink:href="#M"/><use transform="matrix(0.010850694444444444,0,0,0.010850694444444444,111.55598958333333,0)" xlink:href="#an"/><use transform="matrix(0.010850694444444444,0,0,0.010850694444444444,123.6111111111111,0)" xlink:href="#I"/><use transform="matrix(0.010850694444444444,0,0,0.010850694444444444,136.56684027777777,0)" xlink:href="#R"/><use transform="matrix(0.010850694444444444,0,0,0.010850694444444444,148.29644097222223,0)" xlink:href="#T"/><use transform="matrix(0.010850694444444444,0,0,0.010850694444444444,154.69835069444446,0)" xlink:href="#U"/><use transform="matrix(0.010850694444444444,0,0,0.010850694444444444,168.3051215277778,0)" xlink:href="#Z"/><use transform="matrix(0.010850694444444444,0,0,0.010850694444444444,181.91189236111114,0)" xlink:href="#X"/></g><g id="v"><use transform="matrix(0.010850694444444444,0,0,0.010850694444444444,0,0)" xlink:href="#am"/><use transform="matrix(0.010850694444444444,0,0,0.010850694444444444,12.6953125,0)" xlink:href="#al"/><use transform="matrix(0.010850694444444444,0,0,0.010850694444444444,26.01996527777778,0)" xlink:href="#M"/><use transform="matrix(0.010850694444444444,0,0,0.010850694444444444,34.733072916666664,0)" xlink:href="#M"/><use transform="matrix(0.010850694444444444,0,0,0.010850694444444444,42.730034722222214,0)" xlink:href="#I"/><use transform="matrix(0.010850694444444444,0,0,0.010850694444444444,55.68576388888888,0)" xlink:href="#P"/><use transform="matrix(0.010850694444444444,0,0,0.010850694444444444,61.06770833333332,0)" xlink:href="#J"/><use transform="matrix(0.010850694444444444,0,0,0.010850694444444444,73.54600694444443,0)" xlink:href="#K"/><use transform="matrix(0.010850694444444444,0,0,0.010850694444444444,80.8159722222222,0)" xlink:href="#S"/><use transform="matrix(0.010850694444444444,0,0,0.010850694444444444,86.19791666666664,0)" xlink:href="#al"/><use transform="matrix(0.010850694444444444,0,0,0.010850694444444444,99.52256944444441,0)" xlink:href="#O"/><use transform="matrix(0.010850694444444444,0,0,0.010850694444444444,112.65190972222217,0)" xlink:href="#N"/><use transform="matrix(0.010850694444444444,0,0,0.010850694444444444,123.53515624999997,0)" xlink:href="#ak"/><use transform="matrix(0.010850694444444444,0,0,0.010850694444444444,143.00130208333331,0)" xlink:href="#Z"/><use transform="matrix(0.010850694444444444,0,0,0.010850694444444444,156.60807291666666,0)" xlink:href="#S"/><use transform="matrix(0.010850694444444444,0,0,0.010850694444444444,161.99001736111111,0)" xlink:href="#N"/><use transform="matrix(0.010850694444444444,0,0,0.010850694444444444,172.87326388888889,0)" xlink:href="#M"/><use transform="matrix(0.010850694444444444,0,0,0.010850694444444444,181.58637152777777,0)" xlink:href="#S"/><use transform="matrix(0.010850694444444444,0,0,0.010850694444444444,186.96831597222223,0)" xlink:href="#Z"/><use transform="matrix(0.010850694444444444,0,0,0.010850694444444444,200.5750868055556,0)" xlink:href="#as"/><use transform="matrix(0.010850694444444444,0,0,0.010850694444444444,214.2035590277778,0)" xlink:href="#I"/><use transform="matrix(0.010850694444444444,0,0,0.010850694444444444,227.15928819444449,0)" xlink:href="#T"/><use transform="matrix(0.010850694444444444,0,0,0.010850694444444444,233.56119791666669,0)" xlink:href="#U"/><use transform="matrix(0.010850694444444444,0,0,0.010850694444444444,247.16796875000003,0)" xlink:href="#Z"/><use transform="matrix(0.010850694444444444,0,0,0.010850694444444444,260.77473958333337,0)" xlink:href="#X"/></g></defs></g></svg>